<svg width="26" height="26" viewBox="0 0 26 26" fill="none" xmlns="http://www.w3.org/2000/svg">
<path d="M13 14.0835C14.7949 14.0835 16.25 12.6284 16.25 10.8335C16.25 9.03857 14.7949 7.5835 13 7.5835C11.2051 7.5835 9.75 9.03857 9.75 10.8335C9.75 12.6284 11.2051 14.0835 13 14.0835Z" stroke="#0E3344" stroke-width="2" stroke-linecap="round" stroke-linejoin="round"/>
<path d="M13.0002 2.16675C10.7016 2.16675 8.49722 3.07984 6.8719 4.70516C5.24659 6.33047 4.3335 8.53487 4.3335 10.8334C4.3335 12.8831 4.769 14.2242 5.9585 15.7084L13.0002 23.8334L20.0418 15.7084C21.2313 14.2242 21.6668 12.8831 21.6668 10.8334C21.6668 8.53487 20.7537 6.33047 19.1284 4.70516C17.5031 3.07984 15.2987 2.16675 13.0002 2.16675Z" stroke="#0E3344" stroke-width="2" stroke-linecap="round" stroke-linejoin="round"/>
</svg>
